# xmcd
#
# Track frame offsets: 
#        150
#        21051
#        43269
#        59383
#        79856
#        109157
#        133550
#        148022
#
# Disc length: 2183 seconds
#
# Revision: 0
# Processed by: cddbd v1.5.2PL0 Copyright (c) Steve Scherf et al.
# Submitted via: ExactAudioCopy v0.99pb5
#
DISCID=6d088508
DTITLE=Pastor T.L. Barrett - Like A Ship...(Without A Sail)
DYEAR=1971
DGENRE=gospel
TTITLE0=Like A Ship
TTITLE1=Wonderful
TTITLE2=It's Me O Lord
TTITLE3=Ever Since
TTITLE4=Nobody Knows
TTITLE5=Joyful Noise
TTITLE6=Medley
TTITLE7=Blessed Quietness
EXTD=
EXTT0=
EXTT1=
EXTT2=
EXTT3=
EXTT4=
EXTT5=
EXTT6=
EXTT7=
PLAYORDER=
